HIERARCHY
ROOT Hips
{
	OFFSET 0.00000 0.00000 0.00000
	CHANNELS 6 Xposition Yposition Zposition Zrotation Yrotation Xrotation 
	JOINT LHipJoint
	{
		OFFSET 0 0 0
		CHANNELS 3 Zrotation Yrotation Xrotation
		JOINT LeftUpLeg
		{
			OFFSET 1.64549 -1.70879 0.84566
			CHANNELS 3 Zrotation Yrotation Xrotation
			JOINT LeftLeg
			{
				OFFSET 2.24963 -6.18082 0.00000
				CHANNELS 3 Zrotation Yrotation Xrotation
				JOINT LeftFoot
				{
					OFFSET 2.71775 -7.46697 0.00000
					CHANNELS 3 Zrotation Yrotation Xrotation
					JOINT LeftToeBase
					{
						OFFSET 0.18768 -0.51564 2.24737
						CHANNELS 3 Zrotation Yrotation Xrotation
						End Site
						{
							OFFSET 0.00000 -0.00000 1.15935
						}
					}
				}
			}
		}
	}
	JOINT RHipJoint
	{
		OFFSET 0 0 0
		CHANNELS 3 Zrotation Yrotation Xrotation
		JOINT RightUpLeg
		{
			OFFSET -1.58830 -1.70879 0.84566
			CHANNELS 3 Zrotation Yrotation Xrotation
			JOINT RightLeg
			{
				OFFSET -2.25006 -6.18201 0.00000
				CHANNELS 3 Zrotation Yrotation Xrotation
				JOINT RightFoot
				{
					OFFSET -2.72829 -7.49593 0.00000
					CHANNELS 3 Zrotation Yrotation Xrotation
					JOINT RightToeBase
					{
						OFFSET -0.21541 -0.59185 2.10643
						CHANNELS 3 Zrotation Yrotation Xrotation
						End Site
						{
							OFFSET -0.00000 -0.00000 1.09838
						}
					}
				}
			}
		}
	}
	JOINT LowerBack
	{
		OFFSET 0 0 0
		CHANNELS 3 Zrotation Yrotation Xrotation
		JOINT Spine
		{
			OFFSET 0.03142 2.10496 -0.11038
			CHANNELS 3 Zrotation Yrotation Xrotation
			JOINT Spine1
			{
				OFFSET -0.01863 2.10897 -0.06956
				CHANNELS 3 Zrotation Yrotation Xrotation
				JOINT Neck
				{
					OFFSET 0 0 0
					CHANNELS 3 Zrotation Yrotation Xrotation
					JOINT Neck1
					{
						OFFSET -0.02267 1.73238 0.00451
						CHANNELS 3 Zrotation Yrotation Xrotation
						JOINT Head
						{
							OFFSET -0.05808 1.54724 -0.61749
							CHANNELS 3 Zrotation Yrotation Xrotation
							End Site
							{
								OFFSET -0.01396 1.71468 -0.21082
							}
						}
					}
				}
				JOINT LeftShoulder
				{
					OFFSET 0 0 0
					CHANNELS 3 Zrotation Yrotation Xrotation
					JOINT LeftArm
					{
						OFFSET 3.44898 0.50298 0.21920
						CHANNELS 3 Zrotation Yrotation Xrotation
						JOINT LeftForeArm
						{
							OFFSET 5.41917 -0.00000 -0.00000
							CHANNELS 3 Zrotation Yrotation Xrotation
							JOINT LeftHand
							{
								OFFSET 2.44373 -0.00000 0.00000
								CHANNELS 3 Zrotation Yrotation Xrotation
								JOINT LeftFingerBase
								{
									OFFSET 0 0 0
									CHANNELS 3 Zrotation Yrotation Xrotation
									JOINT LeftHandIndex1
									{
										OFFSET 0.72750 -0.00000 0.00000
										CHANNELS 3 Zrotation Yrotation Xrotation
										End Site
										{
											OFFSET 0.58653 -0.00000 0.00000
										}
									}
								}
								JOINT LThumb
								{
									OFFSET 0 0 0
									CHANNELS 3 Zrotation Yrotation Xrotation
									End Site
									{
										OFFSET 0.59549 -0.00000 0.59549
									}
								}
							}
						}
					}
				}
				JOINT RightShoulder
				{
					OFFSET 0 0 0
					CHANNELS 3 Zrotation Yrotation Xrotation
					JOINT RightArm
					{
						OFFSET -3.23015 0.55830 0.31051
						CHANNELS 3 Zrotation Yrotation Xrotation
						JOINT RightForeArm
						{
							OFFSET -5.58976 -0.00010 0.00014
							CHANNELS 3 Zrotation Yrotation Xrotation
							JOINT RightHand
							{
								OFFSET -2.48060 -0.00000 0.00000
								CHANNELS 3 Zrotation Yrotation Xrotation
								JOINT RightFingerBase
								{
									OFFSET 0 0 0
									CHANNELS 3 Zrotation Yrotation Xrotation
									JOINT RightHandIndex1
									{
										OFFSET -0.81601 -0.00000 0.00000
										CHANNELS 3 Zrotation Yrotation Xrotation
										End Site
										{
											OFFSET -0.65789 -0.00000 0.00000
										}
									}
								}
								JOINT RThumb
								{
									OFFSET 0 0 0
									CHANNELS 3 Zrotation Yrotation Xrotation
									End Site
									{
										OFFSET -0.66793 -0.00000 0.66793
									}
								}
							}
						}
					}
				}
			}
		}
	}
}
MOTION
Frames: 15
Frame Time: 0.0136986
0.00 0.00 0.00 -134.5290 -80.0325 159.0250 0.0000 0.0000 0.0000 17.5829 -18.6921 -24.1736 5.2883 13.7012 42.0536 12.8417 -40.3912 -70.1621 7.9476 16.0806 52.3738 0.0000 0.0000 0.0000 23.4924 15.9805 -56.6968 -11.1097 -17.9883 63.1373 179.6777 27.8544 -21.5534 -0.1702 -2.6578 7.3275 3.6521 -2.1513 1.3093 -0.2012 -3.1540 -10.5911 -1.8269 -2.1100 -12.3533 -12.0054 -15.0376 -14.6877 16.9524 -22.7251 17.4606 4.1256 -9.9233 11.5517 0.0000 -0.0000 0.0000 -69.0981 10.4112 -19.6642 9.1464 -15.3934 -1.2387 -0.0000 -0.0000 40.1845 -2.9329 19.5833 -0.9838 -7.1250 0.0000 -0.0000 -29.4881 47.1896 -1.7400 0.0000 -0.0000 0.0000 74.6419 10.3392 35.3436 -18.0021 28.1598 -4.5502 0.0000 -0.0000 -17.0933 -2.9287 11.7370 -0.5963 7.1250 -0.0000 -0.0000 16.8230 -18.4856 11.1095
0.00 0.00 0.00 -191.4050 -79.9346 214.0320 0.0000 0.0000 0.0000 -0.9908 -18.1581 -29.5509 5.5619 13.9899 43.1969 11.9058 -20.7052 -65.7114 7.2774 15.5611 49.9158 0.0000 0.0000 0.0000 19.8123 19.5415 -45.6467 -8.5219 -16.4900 54.4216 -179.7501 27.1077 -17.6134 -1.6484 -8.0917 22.9929 -2.4144 -3.0755 -3.5936 -2.5444 -5.0785 -10.8818 -1.0737 -2.7306 -9.5599 -13.2163 -14.1799 -12.0599 15.6073 -23.3085 24.7009 3.9034 -10.4274 13.9537 0.0000 0.0000 0.0000 -53.3198 14.4442 -21.2698 9.3250 -15.6769 -1.2865 -0.0000 -0.0000 43.0165 -3.3165 25.4626 -1.4272 -7.1250 0.0000 -0.0000 -33.3297 52.1805 -6.4839 0.0000 0.0000 0.0000 55.5917 12.6348 6.1358 -11.9471 19.7253 -2.0844 0.0000 -0.0000 -2.5380 -7.2552 7.9334 -1.0066 7.1250 -0.0000 -0.0000 14.1531 -22.0555 8.0453
0.00 0.00 0.00 -194.5420 -77.8939 216.6120 0.0000 0.0000 0.0000 -8.5328 -14.4141 -34.3708 6.0844 14.5096 45.3194 7.1427 -13.5712 -49.4371 7.2962 15.5764 49.9861 0.0000 0.0000 0.0000 20.0389 19.9574 -40.7220 -6.8753 -15.2260 48.4010 -179.0990 21.4008 -6.7095 -1.9717 -8.8068 25.1928 -3.5449 -1.9559 -4.9478 -3.3735 -3.5280 -10.4030 -1.4669 -1.9286 -8.2183 -12.6061 -15.3348 -10.2968 16.0339 -26.3838 26.1202 3.3655 -11.8071 14.7705 -0.0000 -0.0000 0.0000 -47.4562 11.5517 -13.2941 9.7306 -16.3171 -1.3983 -0.0000 -0.0000 38.3267 -2.3915 21.7906 -0.8882 -7.1250 0.0000 -0.0000 -30.2102 49.1883 -3.4032 -0.0000 -0.0000 0.0000 48.7158 7.4870 -3.6532 -11.5745 19.1634 -1.9604 0.0000 0.0000 1.1908 -4.6155 8.7821 -0.7062 7.1250 -0.0000 -0.0000 15.9390 -21.2868 9.4292
0.00 0.00 0.00 -185.6190 -74.6218 208.1670 0.0000 0.0000 0.0000 -11.4428 -15.1300 -36.4337 6.2483 14.6647 45.9703 3.8596 3.7909 -38.6075 5.1278 13.5263 41.3721 0.0000 0.0000 0.0000 20.2218 20.4540 -39.4685 -6.1075 -14.5317 45.4117 -179.2763 14.8643 5.5829 -5.6778 -14.1087 43.6745 -0.9215 -2.1364 -6.7658 -2.7454 -3.6268 -9.8453 -2.3586 -2.1475 -6.6541 -11.4121 -14.1068 -10.7975 15.8022 -25.3000 27.6229 3.3597 -11.2384 15.1288 -0.0000 0.0000 0.0000 -43.9112 13.7869 -8.4242 10.5567 -17.6057 -1.6393 -0.0000 -0.0000 31.4977 0.7156 18.0297 0.2215 -7.1250 0.0000 -0.0000 -25.5596 46.2878 -0.8687 -0.0000 0.0000 0.0000 43.1072 7.6972 -8.0518 -10.2869 17.1871 -1.5587 0.0000 0.0000 3.7350 -1.8052 8.8875 -0.2790 7.1250 -0.0000 -0.0000 17.8847 -21.2286 10.7190
0.00 0.00 0.00 -165.9120 -65.1557 188.7510 0.0000 0.0000 0.0000 -10.5082 -12.1213 -37.2151 6.6478 15.0279 47.5292 1.7165 11.7820 -31.4075 1.5150 7.7729 22.0263 0.0000 0.0000 0.0000 22.7070 19.6768 -41.1295 -6.5030 -14.8987 46.9686 179.4087 9.5550 20.9927 -0.0218 0.9543 -2.6231 5.3572 0.1620 -3.2747 0.9087 -0.1925 -9.7872 -1.9834 -0.7131 -8.4818 -10.4631 -13.1552 -9.3267 13.6504 -23.6451 28.3145 2.9307 -10.7604 14.2658 -0.0000 0.0000 0.0000 -40.3907 14.4508 -6.8086 11.2575 -18.6819 -1.8576 -0.0000 -0.0000 26.7317 1.9432 17.8741 0.5966 -7.1250 0.0000 -0.0000 -24.4145 46.3028 -0.8343 -0.0000 0.0000 0.0000 31.3533 3.6228 -39.0297 -7.4470 12.6526 -0.8268 0.0000 0.0000 27.6138 -4.8601 8.7284 -0.7393 7.1250 -0.0000 -0.0000 15.7728 -21.3338 9.3054
0.00 0.00 0.00 -167.6340 -55.2310 190.1580 0.0000 0.0000 0.0000 -13.2408 -14.8109 -25.4354 4.9502 13.3275 40.6073 2.9019 12.5986 -38.4585 0.3956 4.0386 11.1854 0.0000 0.0000 0.0000 7.1393 18.7490 -51.6572 -5.7186 -14.1500 43.8417 -176.4265 31.4165 8.8492 -3.3764 -11.2808 33.2329 7.6075 0.2997 -1.1550 2.8779 0.3547 -7.4466 -1.2165 -0.3821 -7.1368 -10.3958 -12.2321 -13.3780 12.8869 -21.9312 29.5620 2.7142 -9.7608 15.2987 -0.0000 -0.0000 0.0000 -33.9568 15.6255 -16.5415 10.6147 -17.6952 -1.6569 -0.0000 -0.0000 31.3738 -0.7261 24.0366 -0.2958 -7.1250 0.0000 -0.0000 -30.0531 51.3953 -5.1253 -0.0000 -0.0000 0.0000 22.6772 -6.4210 -77.6457 -6.9286 11.8017 -0.7170 0.0000 0.0000 58.2310 -9.6262 7.3499 -1.2430 7.1250 -0.0000 -0.0000 12.5019 -22.5726 6.9065
0.00 0.00 0.00 -172.3400 -52.7824 194.8980 0.0000 0.0000 0.0000 -17.0892 -15.3217 -18.2204 4.1330 12.3354 36.9289 5.4398 12.4516 -49.1183 0.0298 -1.1148 -3.0646 0.0000 0.0000 0.0000 -5.9455 18.4656 -57.9775 -4.7905 -13.1439 39.9094 -175.4721 40.1614 -6.7986 -5.8517 -14.2831 44.3836 6.2057 -0.7643 -3.1342 3.0115 -1.3056 -7.0017 -0.2872 -1.0732 -5.5925 -9.8964 -11.5168 -15.2689 12.2952 -20.3585 29.3182 2.6457 -8.9792 15.1928 0.0000 0.0000 0.0000 -28.2177 17.2040 -26.8465 9.8698 -16.5356 -1.4377 -0.0000 -0.0000 42.6993 -8.1013 26.2276 -3.5996 -7.1250 0.0000 -0.0000 -38.1291 51.9926 -7.4637 0.0000 0.0000 0.0000 19.8418 -13.6332 -90.3786 -7.1790 12.2135 -0.7691 0.0000 0.0000 71.0103 -6.2780 4.6923 -0.5156 7.1250 -0.0000 -0.0000 15.1897 -25.2250 7.5216
0.00 0.00 0.00 -182.3170 -49.7843 200.7480 0.0000 0.0000 0.0000 -23.2238 -11.3683 -9.8037 3.4958 11.4574 33.8384 5.5838 12.7461 -49.7937 0.7795 -5.6370 -15.7346 0.0000 0.0000 0.0000 -13.7940 11.5267 -62.8555 -4.7363 -13.0805 39.6706 -178.9088 37.6803 -22.0197 -8.4076 -16.4110 54.0178 0.6735 -3.2179 -4.2140 2.1050 -4.5678 -6.2804 1.7738 -2.4003 -4.0072 -8.9376 -10.1069 -18.7911 10.0104 -17.9288 31.9488 1.9287 -7.9007 16.4379 -0.0000 -0.0000 0.0000 -22.7876 21.1811 -29.7854 9.7402 -16.3322 -1.4010 -0.0000 -0.0000 49.7639 -10.5520 29.7699 -5.2843 -7.1250 0.0000 -0.0000 -43.1278 54.3294 -11.5051 -0.0000 -0.0000 0.0000 20.1363 -19.3041 -85.4630 -6.9637 11.8595 -0.7242 0.0000 0.0000 69.6742 -4.7065 0.3859 -0.0318 7.1250 -0.0000 -0.0000 16.9639 -29.3675 6.7351
0.00 0.00 0.00 -187.3210 -46.2250 202.3430 0.0000 0.0000 0.0000 -23.1219 -2.8575 -6.0268 3.3999 11.3159 33.3529 2.0258 15.4949 -36.1124 3.2627 -11.1086 -32.6470 0.0000 0.0000 0.0000 -6.5682 3.3109 -66.9922 -5.2917 -13.7050 42.0682 -176.2480 44.6882 -17.6058 -8.8057 -16.6810 55.4156 -1.7610 -4.7907 -6.9227 0.7979 -6.7175 -6.7545 1.5067 -3.4626 -2.8441 -9.6082 -7.4997 -16.9607 9.9024 -14.7544 34.1182 2.7937 -6.9586 16.7047 -0.0000 -0.0000 0.0000 -18.8084 23.9071 -25.3157 9.6628 -16.2104 -1.3793 -0.0000 -0.0000 50.2143 -9.6722 30.0197 -4.8737 -7.1250 0.0000 -0.0000 -42.5735 54.6901 -11.7162 -0.0000 -0.0000 0.0000 23.5716 -22.0695 -94.0581 -7.1324 12.1370 -0.7592 0.0000 0.0000 80.6428 -4.0090 4.1994 -0.2940 7.1250 -0.0000 -0.0000 16.9095 -25.6995 8.2484
0.00 0.00 0.00 -188.5660 -42.5674 199.0790 0.0000 0.0000 0.0000 -19.6852 2.8019 -5.1216 4.9890 13.3714 40.7750 -0.7118 18.5768 -19.0083 1.5887 -7.9511 -22.5656 0.0000 0.0000 0.0000 3.6952 -0.9808 -64.8382 -5.9195 -14.3499 44.6578 -175.5144 38.9861 -4.7864 -8.6756 -16.5944 54.9613 -3.3357 -4.7800 -7.6946 -0.1843 -6.6555 -6.6657 1.2853 -3.4189 -2.2833 -9.1510 -5.6650 -14.8702 8.9899 -13.2237 36.9882 2.7144 -6.7469 17.3207 0.0000 -0.0000 0.0000 -17.3607 21.3698 -25.4286 9.4265 -15.8376 -1.3141 -0.0000 -0.0000 51.0145 -8.3992 29.1522 -4.1140 -7.1250 0.0000 -0.0000 -40.6977 54.2629 -10.5958 0.0000 -0.0000 0.0000 28.2282 -25.8380 -103.9737 -7.2510 12.3317 -0.7844 0.0000 0.0000 86.9555 -3.8747 5.4014 -0.3653 7.1250 -0.0000 -0.0000 16.8478 -24.5463 8.6907
0.00 0.00 0.00 -186.2140 -38.4930 192.4270 0.0000 0.0000 0.0000 -12.5838 2.6565 -11.2415 10.0858 17.4578 59.7749 -1.0635 18.3197 -2.6464 0.6177 -5.0300 -13.9942 0.0000 0.0000 0.0000 10.4178 1.4662 -56.3773 -6.7885 -15.1511 48.0697 -177.2173 30.9970 -2.5988 -3.9351 -12.0736 35.9927 -2.4631 -3.7259 -6.5959 -0.2365 -5.2492 -6.0915 0.9005 -2.7137 -2.4224 -9.4674 -4.5673 -13.3043 9.1408 -12.7792 39.0498 2.9674 -6.9245 18.0549 0.0000 0.0000 0.0000 -18.4303 14.5623 -29.8883 9.0234 -15.1976 -1.2062 -0.0000 -0.0000 52.2533 -6.1120 27.8005 -2.8591 -7.1250 0.0000 -0.0000 -37.5576 53.6148 -8.9382 0.0000 0.0000 0.0000 36.3025 -31.2959 -104.7887 -7.0788 12.0488 -0.7480 0.0000 0.0000 70.2653 -1.5773 2.4747 -0.0681 7.1250 -0.0000 -0.0000 18.9485 -27.3159 8.5837
0.00 0.00 0.00 -181.7210 -32.7766 185.9010 0.0000 0.0000 0.0000 -4.7161 -0.5999 -25.5117 13.2976 18.8870 70.0475 -0.4409 15.3380 -16.2806 0.0550 -1.5132 -4.1620 0.0000 0.0000 0.0000 16.5018 9.6869 -48.0074 -7.6829 -15.8810 51.4123 -177.6016 34.5719 -11.6222 -4.3223 -12.5774 37.8065 -0.4189 -3.2201 -3.1967 0.4393 -4.5894 -5.8082 0.7148 -2.3911 -4.1350 -9.1369 -2.8909 -11.0558 12.1029 -12.5636 39.0613 4.3582 -6.8368 17.7449 -0.0000 -0.0000 0.0000 -22.6636 9.8856 -33.2998 8.9149 -15.0247 -1.1780 -0.0000 -0.0000 52.4081 -2.0952 26.8440 -0.9464 -7.1250 0.0000 -0.0000 -33.1910 53.5570 -7.6417 -0.0000 -0.0000 0.0000 47.1718 -29.5204 -107.9913 -7.1038 12.0899 -0.7532 0.0000 0.0000 59.5940 -1.9102 0.7830 -0.0261 7.1250 -0.0000 -0.0000 18.9955 -28.9235 7.8378
0.00 0.00 0.00 -179.7990 -24.9307 184.4550 0.0000 0.0000 0.0000 -0.0162 -8.8902 -38.6314 11.5765 18.2058 64.6399 1.7220 11.4943 -31.2236 0.0418 1.3199 3.6295 0.0000 0.0000 0.0000 19.7296 16.5313 -46.4864 -9.3355 -17.0188 57.2433 -178.5242 32.9103 -15.3848 -3.7109 -11.7655 34.9074 1.3793 -2.7471 -1.4696 0.6963 -3.8892 -5.4056 0.0665 -2.0892 -4.7979 -5.4166 -1.1216 -10.5652 10.2494 -10.7922 40.1345 3.1439 -5.9582 17.4647 -0.0000 -0.0000 0.0000 -30.0017 10.6273 -30.8073 8.8814 -14.9713 -1.1693 -0.0000 -0.0000 51.2915 4.7414 24.3443 1.9582 -7.1250 0.0000 -0.0000 -25.1840 52.5831 -4.9542 -0.0000 -0.0000 0.0000 54.6319 -22.7640 -103.2054 -6.4747 11.0516 -0.6270 0.0000 0.0000 63.0083 -0.8772 1.7278 -0.0265 7.1250 -0.0000 -0.0000 19.5913 -28.0070 8.5671
0.00 0.00 0.00 -181.6890 -14.7732 183.3300 0.0000 0.0000 0.0000 6.5229 -17.2160 -49.6849 6.5040 14.8996 46.9726 5.0071 0.8916 -42.8703 1.2036 6.9605 19.5983 0.0000 0.0000 0.0000 21.1515 19.3048 -41.2363 -10.2328 -17.5387 60.2637 -179.5304 28.7879 -17.6012 -2.9000 -10.5315 30.7155 1.4884 -1.9883 1.7869 -0.3781 -2.7482 -4.3446 -1.0354 -1.4942 -5.5863 -3.5220 0.4623 -11.7851 9.0074 -8.4493 40.6680 2.6255 -4.8546 17.5736 0.0000 -0.0000 0.0000 -36.0978 6.8422 -24.4067 7.9165 -13.4174 -0.9326 -0.0000 -0.0000 51.3281 -1.1251 26.2237 -0.4972 -7.1250 0.0000 -0.0000 -31.8587 53.2061 -6.9926 0.0000 -0.0000 0.0000 55.4748 -15.3693 -92.1808 -5.7444 9.8351 -0.4946 0.0000 0.0000 59.7247 7.5655 -2.6808 -0.3559 7.1250 -0.0000 -0.0000 26.7692 -31.7232 9.6478
0.00 0.00 0.00 -181.8180 -11.0859 183.5490 0.0000 0.0000 0.0000 15.1470 -24.6777 -52.9273 5.2406 13.6497 41.8519 7.1221 -14.1241 -49.3471 4.6042 12.9238 39.0837 0.0000 0.0000 0.0000 21.7354 21.5503 -39.4720 -10.0852 -17.4575 59.7727 -179.5171 28.5921 -17.3555 -3.0029 -10.6998 31.2740 2.1993 -1.6461 2.3115 -0.6681 -2.2725 -4.5434 -1.7452 -1.3083 -6.1249 -3.2757 1.0584 -12.4046 9.1416 -7.9153 41.1846 2.7284 -4.6284 17.9841 -0.0000 -0.0000 0.0000 -36.5004 3.7130 -25.1948 7.4561 -12.6673 -0.8287 -0.0000 -0.0000 54.0368 -5.3766 27.3272 -2.4740 -7.1250 0.0000 -0.0000 -36.5320 53.3643 -8.3970 -0.0000 -0.0000 0.0000 53.2841 -13.1363 -90.6041 -5.6327 9.6481 -0.4757 0.0000 0.0000 59.4289 7.1275 -3.2856 -0.4106 7.1250 -0.0000 -0.0000 26.6184 -32.2944 9.1665
